<svg width="200" height="150" viewBox="0 0 800 600" fill="none" xmlns="http://www.w3.org/2000/svg" data-reactroot="">
<path d="M763.196 339.665C676.112 169.683 534.789 169.683 447.706 339.665C439.771 355.1 416.323 345.429 421.731 328.928C422.323 327.073 422.955 325.217 423.665 323.362C451.259 247.292 524.013 197 604.938 197H606.004C686.929 197 759.683 247.292 787.276 323.362C787.947 325.217 788.579 327.073 789.21 328.928C794.579 345.429 771.131 355.1 763.196 339.665Z" fill="#fffffe"></path>
<path d="M352.255 339.665C265.172 169.683 123.849 169.683 36.7656 339.665C28.8704 355.1 5.42184 345.429 10.7905 328.928C11.3827 327.072 12.0143 325.217 12.7248 323.362C40.3184 247.292 113.072 197 193.997 197H195.063C275.988 197 348.742 247.292 376.336 323.362C377.007 325.217 377.638 327.072 378.27 328.928C383.639 345.429 360.19 355.1 352.255 339.665Z" fill="#b8c1ec"></path>
<path d="M242.472 255.147C324.7 427.538 465.904 431.604 557.843 264.148C566.212 248.949 589.345 259.253 583.502 275.596C582.831 277.411 582.16 279.267 581.41 281.122C551.646 356.363 477.51 404.563 396.585 402.273L395.519 402.234C314.633 399.905 243.34 347.56 217.918 270.74C217.286 268.845 216.694 266.99 216.142 265.134C211.286 248.476 235.011 239.515 242.472 255.147Z" fill="#eebbc3"></path>
</svg>
