<svg width="200" height="150" viewBox="0 0 800 600" fill="none" xmlns="http://www.w3.org/2000/svg" data-reactroot="">
<path opacity="0.22" d="M262.851 353.655V353.717L262.854 353.779C263.479 368.151 251.603 379.605 236.901 379.605H89.3243C74.7419 379.605 63.3738 368.237 63.3738 353.655V206.078C63.3738 191.496 74.7419 180.128 89.3243 180.128H236.901C251.483 180.128 262.851 191.496 262.851 206.078V353.655Z" stroke="#005B9D" stroke-width="5.72417"></path>
<path opacity="0.22" d="M231.984 321.385V321.447L231.987 321.509C232.611 335.881 220.736 347.336 206.034 347.336H58.4571C43.8747 347.336 32.5066 335.968 32.5066 321.385V173.809C32.5066 159.226 43.8747 147.858 58.4571 147.858H206.034C220.616 147.858 231.984 159.226 231.984 173.809V321.385Z" stroke="#005B9D" stroke-width="5.72417"></path>
<path opacity="0.22" d="M524.972 409.874V409.939L524.975 410.004C525.598 423.711 513.68 435.825 499.022 435.825H351.445C336.863 435.825 325.495 424.457 325.495 409.874V262.298C325.495 247.715 336.863 236.347 351.445 236.347H499.022C513.604 236.347 524.972 247.715 524.972 262.298V409.874Z" stroke="#005B9D" stroke-width="5.72417"></path>
<path opacity="0.22" d="M494.105 377.605V377.67L494.108 377.735C494.731 391.441 482.813 403.555 468.155 403.555H320.578C305.996 403.555 294.628 392.187 294.628 377.605V230.028C294.628 215.446 305.996 204.078 320.578 204.078H468.155C482.737 204.078 494.105 215.446 494.105 230.028V377.605Z" stroke="#005B9D" stroke-width="5.72417"></path>
<path opacity="0.22" d="M787.109 465.391V465.456L787.112 465.521C787.735 479.227 775.817 491.341 761.158 491.341H613.582C598.999 491.341 587.632 479.973 587.632 465.391V317.814C587.632 303.232 598.999 291.864 613.582 291.864H761.158C775.741 291.864 787.109 303.232 787.109 317.814V465.391Z" stroke="#005B9D" stroke-width="5.72417"></path>
<path opacity="0.22" d="M756.242 433.12V433.186L756.245 433.25C756.868 446.957 744.949 459.071 730.291 459.071H582.715C568.132 459.071 556.764 447.703 556.764 433.12V285.544C556.764 270.962 568.132 259.594 582.715 259.594H730.291C744.874 259.594 756.242 270.962 756.242 285.544V433.12Z" stroke="#005B9D" stroke-width="5.72417"></path>
<path d="M186.389 310.913H38.8126C22.6495 310.913 10 298.263 10 282.1V134.523C10 118.36 22.6495 105.711 38.8126 105.711H186.389C202.552 105.711 215.201 118.36 215.201 134.523V282.1C215.904 298.263 202.552 310.913 186.389 310.913Z" fill="#b8c1ec"></path>
<path d="M448.514 367.132H300.938C284.774 367.132 272.125 354.483 272.125 338.32V190.743C272.125 174.58 284.774 161.931 300.938 161.931H448.514C464.677 161.931 477.326 174.58 477.326 190.743V338.32C478.029 353.78 464.677 367.132 448.514 367.132Z" fill="#eebbc3"></path>
<path d="M710.651 422.648H563.074C546.911 422.648 534.262 409.998 534.262 393.835V246.259C534.262 230.096 546.911 217.446 563.074 217.446H710.651C726.814 217.446 739.463 230.096 739.463 246.259V393.835C740.166 409.296 726.814 422.648 710.651 422.648Z" fill="#fffffe"></path>
</svg>
