<svg version="1.2" xmlns="http://www.w3.org/2000/svg" viewBox="0 0 800 600" width="800" height="600">
	<title>shape-006@1x-svg</title>
	<style>
		tspan { white-space:pre } 
		.s0 { fill: #eebbc3 } 
		.t1 { font-size: 35px;fill: #fffffe;font-weight: 800;font-family: "Poppins-ExtraBold", "Poppins" } 
		.s2 { fill: #000000 } 
		.s3 { fill: #b8c1ec } 
		.s4 { fill: none;stroke: #78d2ee;stroke-width: 3 } 
	</style>
	<path id="Layer" class="s0" d="m545.1 293.4c0 57.4-46.6 103.9-104 103.9h-81.3c-57.4 0-104-46.5-104-103.9 5-54.4 18.8-69.6 30.5-73.5 17.8-6.1 29.2 14.7 60.8 15.6 29.5 0.9 34.5-16.7 72.3-26.2 15-3.8 62.4-15.6 95.2 10.6 29 23.1 30.4 63.1 30.5 73.5z"/>
	<text id="Symfony" style="transform: matrix(1,0,0,1,317,284)" >
		<tspan x="0" y="25.9" class="t1">S</tspan><tspan  y="25.9" class="t1">y</tspan><tspan  y="25.9" class="t1">m</tspan><tspan  y="25.9" class="t1">f</tspan><tspan  y="25.9" class="t1">o</tspan><tspan  y="25.9" class="t1">n</tspan><tspan  y="25.9" class="t1">y
</tspan>
	</text>
	<g id="Layer" style="opacity: .1">
		<path id="Layer" class="s2" d="m477.3 306.9c0-57.4 46.5-103.9 103.9-103.9h81.4c2.9 0 5.7 0.1 8.6 0.4h-66.5c-57.4 0-103.9 46.5-103.9 103.9 0.1 10.3 1.4 50.3 30.4 73.5 12.1 9.6 26.2 14.1 39.8 15.7-19.8 1.5-44-0.7-63.3-16.1-29-23.1-30.3-63.1-30.4-73.5z"/>
		<path id="Layer" class="s2" d="m686.4 366c3.6-0.7 7.7-0.9 12.3-0.9 16 0.5 26.8 6 35.9 10.6 2 1 3.8 2 5.7 2.8-1.5 0.9-2.8 1.6-4.3 2-8.8 3-16-0.7-25-5.2-6.8-3.4-14.5-7.3-24.6-9.3z"/>
	</g>
	<path id="Layer" class="s3" d="m790 307.3c-2.4 27.2-7.1 44.6-12.7 55.7-5.6 11.1-12 15.9-17.8 17.8-6.8 2.3-12.7 0.6-19.2-2.4-10.3-4.7-22.2-12.7-41.6-13.3-4.6-0.1-8.7 0.1-12.3 0.9-19.5 3.6-28 17.3-60 25.3-9.5 2.3-31.9 8-55.4 5.2-13.6-1.6-27.7-6.1-39.8-15.7-29-23.2-30.3-63.2-30.4-73.5 0-57.4 46.5-103.9 103.9-103.9h81.4c57.4 0 103.9 46.5 103.9 103.9z"/>
	<path id="Layer" class="s4" d="m10 306.9c0-57.4 46.5-103.9 103.9-103.9h81.4c57.4 0 103.9 46.5 103.9 103.9-4.9 54.5-18.8 69.6-30.4 73.5-17.8 6.1-29.2-14.7-60.9-15.6-29.4-0.8-34.4 16.7-72.3 26.2-15 3.8-62.3 15.6-95.1-10.6-29.1-23.1-30.4-63.1-30.5-73.5z"/>
	<text id="Sylius" style="transform: matrix(1,0,0,1,590,284)" >
		<tspan x="0" y="25.9" class="t1">S</tspan><tspan  y="25.9" class="t1">y</tspan><tspan  y="25.9" class="t1">l</tspan><tspan  y="25.9" class="t1">i</tspan><tspan  y="25.9" class="t1">u</tspan><tspan  y="25.9" class="t1">s
</tspan>
	</text>
	<text id="PHP" style="transform: matrix(1,0,0,1,119,286)" >
		<tspan x="0" y="25.9" class="t1">P</tspan><tspan  y="25.9" class="t1">H</tspan><tspan  y="25.9" class="t1">P
</tspan>
	</text>
</svg>